<svg xmlns="http://www.w3.org/2000/svg" width="24" height="24" viewBox="0 0 6.35 6.35" id="camera"><path d="M9 2c-1.256 0-2.14.893-2.584 2H5.334A3.349 3.349 0 0 0 2 7.334v11.332A3.349 3.349 0 0 0 5.334 22h13.332A3.349 3.349 0 0 0 22 18.666V7.334A3.349 3.349 0 0 0 18.666 4h-1.082C17.141 2.893 16.256 2 15 2H9zm0 2h6c.571 0 1 .429 1 1a1 1 0 0 0 1 1h1.666A1.31 1.31 0 0 1 20 7.334v11.332A1.31 1.31 0 0 1 18.666 20H5.334A1.31 1.31 0 0 1 4 18.666V7.334A1.31 1.31 0 0 1 5.334 6H7a1 1 0 0 0 1-1c0-.571.429-1 1-1zm3.004 4.004c-2.75 0-5.006 2.248-5.006 4.998s2.256 4.996 5.006 4.996A5.009 5.009 0 0 0 17 13.002c0-2.75-2.247-4.998-4.996-4.998zm0 1.992A2.987 2.987 0 0 1 15 13.002a2.978 2.978 0 0 1-2.996 2.996 2.987 2.987 0 0 1-3.006-2.996 2.995 2.995 0 0 1 3.006-3.006z" color="#000" font-family="sans-serif" font-weight="400" overflow="visible" transform="scale(.26458)" style="line-height:normal;font-variant-ligatures:normal;font-variant-position:normal;font-variant-caps:normal;font-variant-numeric:normal;font-variant-alternates:normal;font-feature-settings:normal;text-indent:0;text-align:start;text-decoration-line:none;text-decoration-style:solid;text-decoration-color:#000;text-transform:none;text-orientation:mixed;shape-padding:0;isolation:auto;mix-blend-mode:normal"></path></svg>